<svg width="28" height="22" viewBox="0 0 28 22" fill="none" xmlns="http://www.w3.org/2000/svg">
<g clip-path="url(#clip0_17_349)">
<path d="M0.97458 20.8934C1.16398 20.8724 1.32954 20.7483 1.48157 20.5144C1.58207 20.3594 1.59689 20.1711 1.61042 20.0056L1.61364 19.9661C1.61835 19.8808 1.61555 19.7953 1.60526 19.7105C1.59103 19.6274 1.59234 19.5425 1.60913 19.4598C1.76245 18.9887 1.95185 18.5337 2.11741 18.1472C2.29908 17.7243 2.67659 17.4242 3.23963 17.2557C3.80267 17.0871 4.38826 16.9513 5.00283 16.8087L5.61226 16.6667C5.63239 16.785 5.63951 16.905 5.63352 17.0248C5.61099 17.2122 5.57461 17.3979 5.52464 17.5804C5.51047 17.6391 5.49565 17.6977 5.48213 17.7564C5.36488 18.2645 5.28886 18.919 5.75076 19.4753C6.40013 20.2563 7.06366 21.0095 7.74266 21.7769C7.86652 21.9011 8.03524 21.9751 8.21423 21.9838C8.40362 21.993 8.60075 22.0011 8.79788 22.0011C8.97815 22.0017 9.15834 21.9935 9.33773 21.9764C9.44823 21.9577 9.55319 21.9163 9.64539 21.855C9.73759 21.7937 9.81482 21.714 9.87178 21.6214C9.97228 21.446 9.89433 21.1497 9.76291 21.0212C9.50522 20.7712 9.28619 20.6545 9.09164 20.6625C8.76954 20.678 8.60075 20.4958 8.38881 20.2668L8.3289 20.205C8.27027 20.1433 8.20778 20.0816 8.14723 20.026C8.03735 19.9308 7.93961 19.8234 7.85604 19.7062C7.75773 19.5432 7.69811 19.3615 7.68146 19.174C7.67309 19.0906 7.75426 18.948 7.8103 18.8535C8.02612 18.4751 8.3173 18.1497 8.62523 17.8039C9.04397 17.3359 9.47688 16.8531 9.70429 16.2246C9.75249 16.2001 9.80522 16.1848 9.85954 16.1795C10.1881 16.1623 10.5237 16.1524 10.8478 16.1425C11.1248 16.1345 11.4108 16.1258 11.6923 16.1129C11.7458 16.1129 11.8005 16.1092 11.8553 16.1079C12.093 16.103 12.3391 16.098 12.5575 15.998C13.0323 15.7813 13.4736 15.8863 14.0005 16.0456C14.1294 16.0838 14.2582 16.1184 14.3793 16.1518C14.5481 16.1968 14.7227 16.2438 14.8818 16.2969C14.8978 16.3076 14.9119 16.3208 14.9237 16.3358C14.8953 16.55 14.8715 16.7679 14.8477 16.9785C14.78 17.5854 14.7105 18.2133 14.5372 18.7936C14.3246 19.5061 14.2917 20.1945 14.3072 21.0095C14.3143 21.3762 14.581 21.6152 14.9855 21.6177C15.1008 21.6177 15.2162 21.6177 15.3315 21.6177C15.5131 21.6177 15.7006 21.6177 15.8836 21.6177C16.0916 21.6232 16.3525 21.5504 16.4189 21.1744C16.5091 20.6693 16.1052 20.46 15.9113 20.3594C15.8647 20.335 15.8252 20.2998 15.7966 20.2569C15.7863 20.1396 15.8085 20.0218 15.861 19.9155L15.9815 19.6901C16.446 18.8214 16.9259 17.9231 17.4316 17.06C17.6184 16.7414 17.9199 16.5852 18.3303 16.5963C18.5915 16.5945 18.8518 16.5655 19.1066 16.5099C19.2141 16.4907 19.3249 16.4703 19.4287 16.4549C19.4512 16.4549 19.477 16.4463 19.5027 16.4407H19.5111L19.5981 16.5074C19.9273 16.7599 20.2674 17.0211 20.5786 17.2971C20.6551 17.3723 20.7231 17.4551 20.7815 17.544C20.8648 17.6742 20.9682 17.7916 21.0881 17.8922C21.543 18.2398 21.9978 18.6035 22.441 18.9554C23.3783 19.7043 24.3466 20.4785 25.3831 21.1527C25.9629 21.5281 26.4731 21.667 27.0954 21.6183H27.1302C27.1489 21.6183 27.1669 21.6183 27.185 21.6183C27.6359 21.5979 28.0031 21.2923 28.0044 20.9391C28.0044 20.7897 27.9142 20.6267 27.7564 20.4921C27.6734 20.4169 27.5752 20.3589 27.4678 20.3217C27.3604 20.2845 27.2461 20.269 27.1321 20.276C26.772 20.318 26.4982 20.1995 26.2174 19.8803C26.0627 19.7043 25.8952 19.537 25.7361 19.3746L25.6195 19.2518C24.6822 18.2979 24.0586 17.4329 23.6573 16.5284C23.5873 16.3926 23.5418 16.2465 23.5226 16.0962C23.5059 15.7319 23.4968 15.3603 23.4885 15.0003C23.4749 14.4483 23.4614 13.8779 23.4195 13.316C23.3809 12.803 23.6708 12.1701 24.1585 11.7027C24.5901 11.2891 25.1106 11.0711 25.5847 11.1039C25.7577 11.1099 25.9308 11.0954 26.1001 11.0606H26.1111C26.3391 11.023 26.5858 10.7192 26.7553 10.4716C26.8751 10.2944 27.1457 9.85423 27.0774 9.60356C27.0632 9.5424 27.0379 9.4841 27.0026 9.43131L26.8055 9.15533C26.5201 8.75649 26.2257 8.34406 25.9249 7.94398C25.8251 7.82498 25.7038 7.72418 25.5667 7.64639L25.5119 7.6112C25.3815 7.51614 25.2354 7.44268 25.0797 7.39387C24.8065 7.32225 24.7357 7.20186 24.7885 6.89686C24.8135 6.71988 24.8189 6.54087 24.8046 6.3628C24.8046 6.30106 24.7988 6.23932 24.7988 6.18252V6.05904L24.3775 5.87999L24.1726 5.64476L23.7745 6.09053C23.5911 6.29633 23.4082 6.50213 23.2256 6.70793C22.9345 7.03948 22.5499 7.24816 22.1782 7.42474C21.8648 7.58467 21.5667 7.7706 21.2872 7.9804C21.2047 8.03844 21.1229 8.09648 21.0405 8.15328C20.9465 8.22022 20.8571 8.29303 20.7731 8.37122C20.7119 8.42494 20.6546 8.47618 20.5947 8.52187C19.886 9.06333 19.2457 9.2535 18.5197 9.13928C17.6107 8.99542 16.6843 8.867 15.7882 8.7429C15.1917 8.66017 14.5745 8.57497 13.969 8.48544C13.7325 8.45087 13.4968 8.41444 13.2603 8.37801C12.0028 8.18353 10.7028 7.98288 9.39506 8.03968C8.79337 8.06561 8.18588 8.12488 7.59772 8.1823C7.18671 8.22243 6.76024 8.2638 6.34472 8.29281C6.15124 8.31066 5.95635 8.27758 5.78104 8.19711C4.92488 7.73962 4.39212 7.16173 4.15247 6.42887C4.12542 6.34613 4.09772 6.2634 4.07066 6.1819C3.99915 5.96581 3.92442 5.74293 3.85936 5.52251C3.50246 4.32598 3.5321 3.41037 3.95534 2.55465C4.04385 2.3669 4.1767 2.20144 4.3434 2.07136C4.51011 1.94128 4.70609 1.85013 4.91586 1.80512C5.11734 1.76599 5.32555 1.77234 5.52401 1.82367C5.72248 1.875 5.90576 1.9699 6.05934 2.10086C6.32475 2.32065 6.55152 2.39289 6.75187 2.3225C6.95222 2.25212 7.07397 2.05578 7.12873 1.73412C7.15257 1.59458 7.17511 1.32786 7.06431 1.11671C6.74414 0.496836 6.22877 0.101697 5.65413 0.039956C4.30966 -0.116247 3.28859 0.219003 2.6199 1.03707C1.75859 2.08665 1.37528 3.33196 1.50992 4.63098C1.6069 5.52491 1.87186 6.39465 2.29199 7.19815C2.57802 7.75382 2.9085 8.29405 3.22803 8.81761C3.38393 9.0726 3.54498 9.33623 3.6983 9.59677C3.71699 9.62888 3.7376 9.6616 3.75886 9.69432C3.80911 9.77335 3.87804 9.87954 3.87482 9.93573C3.84325 10.4056 3.76659 10.8723 3.69315 11.3237C3.60876 11.8367 3.51471 12.385 3.39681 12.9203C3.31951 13.2728 3.23898 13.6377 3.08759 13.9637C2.85374 14.4693 2.42985 14.828 1.98084 15.2102C1.88356 15.293 1.78757 15.3757 1.69094 15.4572C1.67548 15.4714 1.65873 15.4856 1.64198 15.4998C1.52409 15.601 1.39074 15.7159 1.33083 15.8739C1.19748 16.2222 1.04415 16.5728 0.895986 16.9118C0.53716 17.7329 0.166095 18.5819 0.025013 19.5111C-0.0394081 19.9241 -0.00462188 20.2699 0.360002 20.6162C0.499796 20.749 0.716251 20.9231 0.97458 20.8934Z" fill="#17181A"/>
</g>
<defs>
<clipPath id="clip0_17_349">
<rect width="28" height="22" fill="white"/>
</clipPath>
</defs>
</svg>
