<svg width="22" height="22" viewBox="0 0 22 22" fill="none" xmlns="http://www.w3.org/2000/svg">
<path d="M19.25 17.4167V11.2448C19.25 10.7474 19.1488 10.2553 18.9526 9.79827C18.7564 9.34127 18.4693 8.92896 18.1087 8.58642L12.2632 3.03417C11.9224 2.71048 11.4704 2.53 11.0005 2.53C10.5305 2.53 10.0785 2.71048 9.73775 3.03417L3.89125 8.58642C3.53068 8.92896 3.24357 9.34127 3.04737 9.79827C2.85117 10.2553 2.75 10.7474 2.75 11.2448V17.4167C2.75 17.9029 2.94315 18.3692 3.28697 18.713C3.63079 19.0568 4.0971 19.25 4.58333 19.25H17.4167C17.9029 19.25 18.3692 19.0568 18.713 18.713C19.0568 18.3692 19.25 17.9029 19.25 17.4167Z" stroke="#17181A" stroke-width="1.83333" stroke-linecap="round" stroke-linejoin="round"/>
</svg>
