<svg width="10" height="12" viewBox="0 0 10 12" fill="none" xmlns="http://www.w3.org/2000/svg">
<g clip-path="url(#clip0_39_34)">
<path d="M2.75 0.375H1.625C1.32663 0.375 1.04048 0.493526 0.829505 0.704505C0.618527 0.915483 0.5 1.20163 0.5 1.5V10.5C0.5 10.7984 0.618527 11.0845 0.829505 11.2955C1.04048 11.5065 1.32663 11.625 1.625 11.625H2.75C3.04837 11.625 3.33452 11.5065 3.54549 11.2955C3.75647 11.0845 3.875 10.7984 3.875 10.5V1.5C3.875 1.20163 3.75647 0.915483 3.54549 0.704505C3.33452 0.493526 3.04837 0.375 2.75 0.375V0.375ZM8.375 0.375H7.25C6.95163 0.375 6.66548 0.493526 6.45451 0.704505C6.24353 0.915483 6.125 1.20163 6.125 1.5V10.5C6.125 10.7984 6.24353 11.0845 6.45451 11.2955C6.66548 11.5065 6.95163 11.625 7.25 11.625H8.375C8.67337 11.625 8.95952 11.5065 9.17049 11.2955C9.38147 11.0845 9.5 10.7984 9.5 10.5V1.5C9.5 1.20163 9.38147 0.915483 9.17049 0.704505C8.95952 0.493526 8.67337 0.375 8.375 0.375V0.375Z" fill="#17181A"/>
</g>
<defs>
<clipPath id="clip0_39_34">
<rect width="10" height="12" fill="white"/>
</clipPath>
</defs>
</svg>
