<svg width="11" height="13" viewBox="0 0 11 13" fill="none" xmlns="http://www.w3.org/2000/svg">
<g clip-path="url(#clip0_39_26)">
<path d="M1.53619 12.5067C1.33832 12.5063 1.14396 12.4538 0.972222 12.3542C0.585503 12.1322 0.345093 11.7013 0.345093 11.2335V1.76644C0.345093 1.29733 0.585503 0.867722 0.972222 0.645735C1.14805 0.543372 1.3478 0.490732 1.55058 0.493316C1.75336 0.4959 1.95173 0.553614 2.12497 0.660426L10.1123 5.50365C10.2788 5.60938 10.416 5.75621 10.5111 5.93037C10.6063 6.10452 10.6562 6.30029 10.6562 6.49933C10.6562 6.69836 10.6063 6.89413 10.5111 7.06829C10.416 7.24244 10.2788 7.38927 10.1123 7.495L2.12368 12.3395C1.9464 12.4481 1.74334 12.5059 1.53619 12.5067V12.5067Z" fill="#17181A"/>
</g>
<defs>
<clipPath id="clip0_39_26">
<rect width="11" height="13" fill="white"/>
</clipPath>
</defs>
</svg>
