<svg width="23" height="18" viewBox="0 0 23 18" fill="none" xmlns="http://www.w3.org/2000/svg">
<g clip-path="url(#clip0_17_351)">
<path fill-rule="evenodd" clip-rule="evenodd" d="M1.92826 12.5649C1.88223 12.3447 1.83684 12.1404 1.79535 11.9348C1.68318 11.372 1.73051 10.8091 1.80507 10.2469C1.95954 9.09524 2.40771 8.00018 3.10828 7.06264C3.53555 6.48392 4.0925 6.0429 4.6864 5.64058C5.60707 5.01681 6.61787 4.60498 7.72916 4.46855C8.42204 4.38127 9.12215 4.36278 9.81883 4.41334C11.0961 4.50979 12.2457 4.96477 13.3589 5.54413C13.838 5.79351 14.937 6.25865 14.9564 6.22946C15.4025 5.54984 16.7667 4.70143 16.7868 4.67795C16.7219 4.6513 16.6694 4.62401 16.6117 4.60498C15.2592 4.16078 13.8996 3.74197 12.5569 3.2724C11.6492 2.95511 10.7816 2.55597 9.98935 2.01469C9.54652 1.71264 9.16269 1.35031 8.98568 0.832502C8.93997 0.692666 8.92235 0.545488 8.93381 0.399097C8.95262 0.157963 9.08359 0.0386655 9.33191 0.0183595C9.82596 -0.0279636 10.3135 0.0304156 10.7998 0.111005C11.4819 0.223957 12.1088 0.487301 12.73 0.765874C13.8369 1.2594 14.8996 1.84292 15.907 2.51029C16.6552 3.00715 17.3826 3.53383 18.1347 4.02499C18.5372 4.29396 18.9603 4.532 19.4003 4.73697C20.4092 5.19448 21.1652 5.90646 21.7234 6.83102C22.0729 7.41101 22.4249 7.99037 22.7485 8.58432C22.9612 8.96872 23.0414 9.41003 22.9773 9.84266C22.9164 10.2615 22.6797 10.4772 22.2894 10.7203C21.4919 11.0267 20.6556 11.1289 19.8062 11.094C18.9134 11.0566 16.613 10.924 16.4866 11.0401C15.9595 11.5249 14.736 12.5795 14.6576 12.5833C13.7939 12.6252 12.0096 12.6887 11.9662 12.6842C12.0544 12.3479 12.1413 12.0211 12.2255 11.6937C12.4551 10.8634 12.3601 9.97918 11.9591 9.21381C11.6997 8.71377 11.2802 8.36349 10.7829 8.10586C9.99912 7.68556 9.0858 7.55879 8.21349 7.74923C7.92367 7.81269 7.42313 8.12299 7.42637 8.13632C7.60597 8.11093 7.78492 8.08174 7.96451 8.0608C9.04339 7.93389 10.0276 8.15853 10.8212 8.90541C11.559 9.59898 11.7905 10.4842 11.5726 11.4513C11.4469 12.0097 11.2258 12.5478 11.0468 13.0954C11.0319 13.1417 11.0157 13.1874 10.9917 13.2566C11.098 13.2566 11.1895 13.261 11.2809 13.2566C12.1186 13.2122 12.9563 13.1544 13.7946 13.1252C14.4559 13.1018 15.1205 13.0618 15.776 13.2058C16.1105 13.278 16.429 13.4087 16.7161 13.5917C16.9532 13.7458 17.1304 13.9736 17.2192 14.2383C17.3722 14.6584 17.2102 14.9179 16.7576 14.9585C16.4378 14.9872 16.1165 14.9971 15.7954 14.9883C14.7652 14.9587 13.7341 15.0109 12.7125 15.1444C11.6316 15.2859 10.556 15.4617 9.47714 15.6108C8.41837 15.7587 7.35635 15.8171 6.29304 15.6622C5.28548 15.515 4.34276 15.1901 3.51026 14.6044C3.2246 14.3805 2.9549 14.1377 2.70305 13.8778C2.61682 14.3899 2.37887 14.7523 1.93215 14.9629C1.77601 15.0385 1.60611 15.083 1.43227 15.0939C1.25844 15.1048 1.08412 15.0819 0.91941 15.0264C0.591597 14.9187 0.318642 14.6918 0.157041 14.3926C-0.00456107 14.0934 -0.0424374 13.7448 0.0512524 13.4191C0.26975 12.6519 0.960905 12.3346 1.92826 12.5649ZM20.8786 7.42117C20.8777 7.33425 20.8505 7.24955 20.8004 7.17775C20.7504 7.10595 20.6797 7.05029 20.5973 7.01778C20.515 6.98527 20.4246 6.97738 20.3377 6.99511C20.2507 7.01283 20.1711 7.05538 20.1089 7.11737C20.0466 7.17936 20.0045 7.25801 19.9879 7.3434C19.9713 7.42879 19.9809 7.51707 20.0156 7.59711C20.0502 7.67715 20.1083 7.74534 20.1825 7.79309C20.2567 7.84083 20.3437 7.86598 20.4325 7.86536C20.4918 7.86554 20.5505 7.85412 20.6053 7.83176C20.66 7.80941 20.7096 7.77658 20.7511 7.73519C20.7927 7.6938 20.8254 7.6447 20.8473 7.59078C20.8691 7.53685 20.8798 7.47918 20.8786 7.42117V7.42117Z" fill="#17181A"/>
<path fill-rule="evenodd" clip-rule="evenodd" d="M8.20245 17.0792C7.8007 17.3752 7.36159 17.6192 6.896 17.8051C6.50654 17.9551 6.08835 18.02 5.6706 17.9955C5.3717 17.9777 5.18303 17.861 4.9574 17.5887C4.91681 17.4925 4.90148 17.3879 4.9128 17.2843C4.92413 17.1808 4.96175 17.0817 5.02223 16.9961C5.20053 16.7118 5.6706 16.114 5.70301 16.1223C6.72937 16.3824 7.7661 16.3126 8.80348 16.2257C8.96233 16.2118 9.12053 16.2003 9.27938 16.1883C9.28846 16.2054 8.57785 16.8108 8.20245 17.0792Z" fill="#17181A"/>
</g>
<defs>
<clipPath id="clip0_17_351">
<rect width="23" height="18" fill="white"/>
</clipPath>
</defs>
</svg>
