<svg width="30" height="15" viewBox="0 0 30 15" fill="none" xmlns="http://www.w3.org/2000/svg">
<g clip-path="url(#clip0_17_354)">
<path d="M22.2781 3.80506C21.0743 3.45385 19.9331 2.96016 18.8918 2.23168C18.153 1.71467 17.3624 1.26907 16.5221 0.923965C10.0351 -1.73891 6.00828 1.60211 3.13294 7.75603C2.88215 8.3237 2.47621 8.67829 1.99955 8.93735C1.71433 9.09222 1.69276 9.47865 1.95391 9.66889C5.9929 12.6117 19.5945 13.8368 22.681 4.54206C22.7054 4.46823 22.7143 4.39048 22.7072 4.31332C22.7001 4.23616 22.6772 4.16112 22.6397 4.09256C22.6022 4.024 22.5509 3.96328 22.4889 3.91393C22.4268 3.86457 22.3552 3.82757 22.2781 3.80506V3.80506Z" fill="black"/>
<path d="M8.72168 13.1881V14.3022C8.7217 14.4283 8.67751 14.5507 8.59627 14.6496C8.51502 14.7486 8.40146 14.8182 8.27394 14.8474C7.40163 15.0494 6.49194 15.0494 5.61963 14.8474C5.49211 14.8182 5.37855 14.7486 5.2973 14.6496C5.21606 14.5507 5.17187 14.4283 5.17189 14.3022V12.5282C5.17203 12.4732 5.18693 12.4192 5.21515 12.3715C5.24338 12.3237 5.28396 12.2837 5.33297 12.2555C5.38198 12.2273 5.43775 12.2117 5.49486 12.2103C5.55197 12.2089 5.60848 12.2217 5.65892 12.2476C6.50641 12.6748 7.42495 12.8609 8.39583 12.8699C8.48275 12.871 8.5657 12.9051 8.62669 12.9647C8.68769 13.0242 8.72182 13.1045 8.72168 13.1881V13.1881Z" fill="black"/>
<path d="M2.92889 12.3003C2.0697 12.53 1.16436 12.5981 0.220402 12.5332C0.175445 12.5303 0.132299 12.515 0.0960705 12.4893C0.0598425 12.4635 0.0320516 12.4283 0.0159897 12.3878C-7.22737e-05 12.3473 -0.00373256 12.3032 0.0054423 12.2608C0.0146172 12.2183 0.0362419 12.1793 0.0677571 12.1484L1.19412 11.0449C1.24904 10.9912 1.32372 10.9606 1.40198 10.9596C1.48023 10.9586 1.55573 10.9874 1.6121 11.0396C1.95818 11.358 2.40926 11.5892 2.94009 11.7544C3.21897 11.8419 3.21061 12.2249 2.92889 12.3003Z" fill="black"/>
<path d="M19.9488 10.108C19.3714 10.7162 18.7618 11.1901 18.0997 11.435C18.0534 11.4518 18.0114 11.478 17.9765 11.5118C17.9416 11.5456 17.9146 11.5862 17.8974 11.6308C17.8801 11.6755 17.8731 11.7231 17.8766 11.7706C17.8802 11.8181 17.8943 11.8644 17.918 11.9062C18.294 12.5665 18.4338 13.3778 18.3156 14.3537C18.302 14.4631 18.3299 14.5735 18.3941 14.6647C18.4584 14.7558 18.5547 14.8217 18.6653 14.85C19.5347 15.0679 20.4628 15.0365 21.4328 14.8272C21.5475 14.8018 21.6485 14.7366 21.7161 14.6439C21.7837 14.5513 21.8133 14.4378 21.7991 14.3254C21.5886 12.6128 21.1857 11.1745 20.4937 10.1488C20.4648 10.1064 20.4261 10.0709 20.3807 10.0451C20.3353 10.0192 20.2843 10.0037 20.2317 9.99978C20.1791 9.99584 20.1262 10.0035 20.0772 10.0223C20.0282 10.0411 19.9843 10.0704 19.9488 10.108V10.108Z" fill="black"/>
<path d="M23.8559 5.14581C24.2779 4.50348 24.8194 3.94153 25.4534 3.48817C28.1578 1.56872 30.2823 3.20353 29.9693 5.76316C29.8926 6.40662 29.5583 6.99601 29.0373 7.40634C26.9843 9.01011 22.091 9.6302 21.4859 8.7282L23.8559 5.14581ZM27.0076 5.51568C27.1129 5.51571 27.2159 5.4857 27.3035 5.42944C27.391 5.37318 27.4593 5.29319 27.4997 5.19961C27.54 5.10602 27.5506 5.00303 27.53 4.90367C27.5095 4.8043 27.4588 4.71303 27.3843 4.64138C27.3099 4.56973 27.215 4.52094 27.1117 4.50116C27.0084 4.48138 26.9013 4.49152 26.804 4.53028C26.7067 4.56904 26.6235 4.63469 26.565 4.71892C26.5065 4.80315 26.4752 4.90218 26.4752 5.00349C26.4753 5.13928 26.5314 5.26949 26.6312 5.3655C26.731 5.46151 26.8664 5.51547 27.0076 5.51551V5.51568Z" fill="black"/>
</g>
<defs>
<clipPath id="clip0_17_354">
<rect width="30" height="15" fill="white" transform="matrix(-1 0 0 1 30 0)"/>
</clipPath>
</defs>
</svg>
